<?xml version="1.0" encoding="UTF-8"?><svg xmlns="http://www.w3.org/2000/svg" xmlns:xlink="http://www.w3.org/1999/xlink" width="375pt" zoomAndPan="magnify" viewBox="0 0 375 374.999991" height="374.999991pt" preserveAspectRatio="xMidYMid meet" version="1.2"><defs><g/><clipPath xml:id="clip1" id="clip1"><path d="M 87.101562 85.121094 L 289.601562 85.121094 L 289.601562 287.621094 L 87.101562 287.621094 Z M 87.101562 85.121094 "/></clipPath><clipPath xml:id="clip2" id="clip2"><path d="M 138.140625 172 L 176 172 L 176 227.042969 L 138.140625 227.042969 Z M 138.140625 172 "/></clipPath><clipPath xml:id="clip3" id="clip3"><path d="M 157 191 L 185 191 L 185 227.042969 L 157 227.042969 Z M 157 191 "/></clipPath><clipPath xml:id="clip4" id="clip4"><path d="M 199 172 L 237.140625 172 L 237.140625 227.042969 L 199 227.042969 Z M 199 172 "/></clipPath><clipPath xml:id="clip5" id="clip5"><path d="M 190 191 L 218 191 L 218 227.042969 L 190 227.042969 Z M 190 191 "/></clipPath></defs><g xml:id="surface1" id="surface1"><g clip-rule="nonzero" clip-path="url(#clip1)"><path style=" stroke:none;fill-rule:nonzero;fill:rgb(100%,87.059021%,34.899902%);fill-opacity:1;" d="M 283.335938 213.367188 C 280.769531 222.109375 276.847656 230.402344 271.984375 238.039062 C 267.96875 244.253906 263.402344 250.09375 258.269531 255.40625 C 257.609375 256.132812 256.867188 256.78125 256.164062 257.46875 C 255.445312 258.140625 254.75 258.835938 254.019531 259.492188 L 251.792969 261.425781 L 250.683594 262.394531 L 249.527344 263.308594 L 247.226562 265.152344 C 246.445312 265.746094 245.640625 266.3125 244.847656 266.894531 C 243.285156 268.09375 241.625 269.144531 239.996094 270.25 C 239.761719 270.40625 239.515625 270.574219 239.257812 270.746094 C 238.992188 270.90625 238.71875 271.070312 238.429688 271.242188 C 237.855469 271.585938 237.238281 271.957031 236.582031 272.347656 C 235.28125 273.167969 233.742188 273.933594 232.082031 274.816406 C 231.664062 275.035156 231.246094 275.269531 230.804688 275.480469 C 230.359375 275.6875 229.90625 275.898438 229.445312 276.109375 C 228.523438 276.539062 227.566406 276.980469 226.578125 277.433594 C 224.554688 278.226562 222.445312 279.175781 220.144531 279.914062 C 211.0625 283.207031 199.726562 285.242188 188.351562 285.289062 C 176.972656 285.242188 165.636719 283.207031 156.554688 279.914062 C 154.253906 279.175781 152.144531 278.226562 150.121094 277.433594 C 149.132812 276.980469 148.179688 276.539062 147.253906 276.109375 C 146.792969 275.898438 146.339844 275.6875 145.898438 275.480469 C 145.457031 275.269531 145.035156 275.035156 144.617188 274.816406 C 142.957031 273.9375 141.417969 273.167969 140.121094 272.351562 C 139.460938 271.957031 138.84375 271.585938 138.269531 271.242188 C 137.984375 271.070312 137.707031 270.90625 137.441406 270.746094 C 137.183594 270.574219 136.9375 270.40625 136.703125 270.25 C 130.523438 266.199219 124.71875 261.601562 119.441406 256.433594 C 113.875 250.871094 109.007812 244.644531 104.714844 238.039062 C 99.851562 230.402344 95.929688 222.109375 93.363281 213.367188 C 90.691406 204.65625 89.457031 195.515625 89.375 186.371094 C 89.457031 177.226562 90.691406 168.085938 93.363281 159.375 C 95.929688 150.632812 99.851562 142.34375 104.714844 134.707031 C 108.730469 128.492188 113.296875 122.648438 118.429688 117.335938 C 119.09375 116.609375 119.832031 115.960938 120.539062 115.277344 C 121.253906 114.601562 121.949219 113.90625 122.683594 113.253906 L 124.90625 111.316406 L 126.019531 110.347656 L 127.171875 109.433594 L 129.476562 107.59375 C 130.257812 106.996094 131.0625 106.429688 131.851562 105.847656 C 133.414062 104.652344 135.074219 103.601562 136.703125 102.492188 C 136.9375 102.335938 137.183594 102.171875 137.441406 101.996094 C 137.707031 101.839844 137.980469 101.671875 138.269531 101.5 C 138.84375 101.15625 139.460938 100.785156 140.121094 100.394531 C 141.417969 99.578125 142.957031 98.808594 144.617188 97.925781 C 145.035156 97.710938 145.453125 97.472656 145.898438 97.261719 C 146.339844 97.058594 146.792969 96.847656 147.253906 96.632812 C 148.175781 96.207031 149.132812 95.765625 150.121094 95.308594 C 152.144531 94.515625 154.253906 93.566406 156.554688 92.832031 C 165.636719 89.539062 176.972656 87.5 188.351562 87.453125 C 199.726562 87.5 211.0625 89.539062 220.144531 92.832031 C 222.445312 93.566406 224.554688 94.515625 226.578125 95.308594 C 227.566406 95.765625 228.519531 96.207031 229.445312 96.632812 C 229.90625 96.847656 230.359375 97.058594 230.804688 97.261719 C 231.246094 97.472656 231.664062 97.710938 232.082031 97.925781 C 233.742188 98.808594 235.28125 99.578125 236.578125 100.394531 C 237.238281 100.785156 237.855469 101.15625 238.429688 101.5 C 238.714844 101.671875 238.992188 101.835938 239.257812 101.996094 C 239.515625 102.167969 239.761719 102.335938 239.996094 102.492188 C 246.175781 106.542969 251.980469 111.144531 257.257812 116.3125 C 262.828125 121.871094 267.691406 128.101562 271.984375 134.703125 C 276.847656 142.34375 280.769531 150.632812 283.335938 159.375 C 286.007812 168.085938 287.246094 177.226562 287.324219 186.371094 C 287.246094 195.515625 286.007812 204.65625 283.335938 213.367188 Z M 289.597656 186.304688 L 289.597656 186.296875 C 289.515625 176.960938 288.257812 167.617188 285.539062 158.710938 C 282.921875 149.777344 278.917969 141.296875 273.921875 133.507812 L 271.519531 129.898438 C 271.519531 129.898438 270.828125 128.929688 269.785156 127.472656 C 268.785156 125.988281 267.25 124.15625 265.785156 122.273438 C 264.207031 120.484375 262.695312 118.640625 261.421875 117.382812 C 260.183594 116.089844 259.359375 115.230469 259.359375 115.230469 C 259.359375 115.230469 259.152344 115.015625 258.777344 114.65625 C 258.402344 114.292969 257.867188 113.777344 257.222656 113.15625 C 255.96875 111.878906 254.148438 110.339844 252.363281 108.757812 C 251.445312 107.996094 250.503906 107.269531 249.632812 106.566406 C 249.195312 106.21875 248.769531 105.882812 248.371094 105.5625 C 247.957031 105.265625 247.5625 104.980469 247.199219 104.71875 C 245.75 103.671875 244.78125 102.976562 244.78125 102.976562 C 244.78125 102.976562 244.574219 102.804688 244.230469 102.585938 C 243.894531 102.359375 243.445312 102.058594 242.996094 101.757812 C 242.097656 101.15625 241.195312 100.554688 241.195312 100.554688 C 240.957031 100.390625 240.703125 100.222656 240.441406 100.042969 C 240.171875 99.878906 239.890625 99.707031 239.597656 99.53125 C 239.007812 99.179688 238.378906 98.800781 237.707031 98.394531 C 236.375 97.558594 234.804688 96.765625 233.105469 95.863281 C 232.679688 95.640625 232.25 95.398438 231.796875 95.183594 C 231.34375 94.972656 230.878906 94.753906 230.410156 94.535156 C 229.464844 94.097656 228.484375 93.644531 227.476562 93.175781 C 225.40625 92.363281 223.246094 91.394531 220.894531 90.636719 C 211.597656 87.257812 199.988281 85.167969 188.351562 85.121094 C 176.710938 85.167969 165.101562 87.257812 155.804688 90.636719 C 153.453125 91.394531 151.292969 92.363281 149.222656 93.179688 C 148.214844 93.644531 147.234375 94.097656 146.289062 94.535156 C 145.820312 94.757812 145.355469 94.972656 144.902344 95.183594 C 144.449219 95.398438 144.019531 95.640625 143.59375 95.863281 C 141.894531 96.765625 140.324219 97.558594 138.992188 98.394531 C 138.320312 98.800781 137.691406 99.179688 137.101562 99.53125 C 136.808594 99.707031 136.527344 99.878906 136.257812 100.042969 C 135.992188 100.222656 135.742188 100.390625 135.503906 100.554688 C 135.503906 100.554688 134.605469 101.15625 133.703125 101.757812 C 133.253906 102.058594 132.804688 102.359375 132.46875 102.585938 C 132.128906 102.804688 131.917969 102.976562 131.917969 102.976562 C 131.917969 102.976562 130.949219 103.671875 129.5 104.71875 C 129.136719 104.980469 128.746094 105.265625 128.328125 105.5625 C 127.929688 105.882812 127.507812 106.21875 127.070312 106.566406 C 126.199219 107.269531 125.253906 107.996094 124.339844 108.757812 C 122.550781 110.339844 120.730469 111.878906 119.476562 113.15625 C 118.835938 113.777344 118.300781 114.292969 117.925781 114.65625 C 117.546875 115.015625 117.339844 115.230469 117.339844 115.230469 C 117.339844 115.230469 116.515625 116.089844 115.277344 117.382812 C 114.003906 118.640625 112.492188 120.484375 110.914062 122.273438 C 109.449219 124.15625 107.914062 125.988281 106.914062 127.472656 C 105.871094 128.929688 105.179688 129.898438 105.179688 129.898438 L 102.777344 133.507812 C 97.785156 141.296875 93.777344 149.777344 91.160156 158.710938 C 88.441406 167.621094 87.1875 176.960938 87.101562 186.296875 L 87.101562 186.445312 C 87.1875 195.78125 88.441406 205.125 91.160156 214.03125 C 93.777344 222.964844 97.785156 231.445312 102.777344 239.234375 L 105.179688 242.84375 C 105.179688 242.84375 105.875 243.816406 106.914062 245.269531 C 107.914062 246.757812 109.449219 248.585938 110.914062 250.46875 C 112.492188 252.257812 114.003906 254.101562 115.277344 255.359375 C 116.515625 256.652344 117.339844 257.511719 117.339844 257.511719 C 117.339844 257.511719 117.546875 257.726562 117.925781 258.085938 C 118.300781 258.449219 118.835938 258.96875 119.476562 259.589844 C 120.730469 260.867188 122.550781 262.40625 124.339844 263.984375 C 125.253906 264.746094 126.199219 265.476562 127.070312 266.175781 C 127.507812 266.523438 127.929688 266.859375 128.328125 267.179688 C 128.746094 267.480469 129.136719 267.761719 129.5 268.023438 C 130.949219 269.070312 131.917969 269.765625 131.917969 269.765625 C 131.917969 269.765625 132.128906 269.9375 132.46875 270.15625 C 132.804688 270.382812 133.253906 270.683594 133.703125 270.984375 C 134.605469 271.589844 135.503906 272.191406 135.503906 272.191406 C 135.742188 272.351562 135.996094 272.523438 136.257812 272.699219 C 136.527344 272.863281 136.808594 273.035156 137.101562 273.210938 C 137.691406 273.566406 138.324219 273.945312 138.996094 274.347656 C 140.324219 275.183594 141.894531 275.976562 143.59375 276.878906 C 144.019531 277.101562 144.449219 277.34375 144.902344 277.558594 C 145.355469 277.773438 145.820312 277.988281 146.289062 278.207031 C 147.234375 278.644531 148.214844 279.097656 149.222656 279.566406 C 151.292969 280.378906 153.453125 281.347656 155.804688 282.109375 C 165.101562 285.484375 176.710938 287.574219 188.351562 287.621094 C 199.988281 287.574219 211.597656 285.484375 220.894531 282.105469 C 223.246094 281.347656 225.40625 280.378906 227.476562 279.566406 C 228.488281 279.097656 229.464844 278.644531 230.410156 278.207031 C 230.882812 277.988281 231.34375 277.769531 231.800781 277.558594 C 232.25 277.34375 232.679688 277.101562 233.105469 276.878906 C 234.804688 275.976562 236.378906 275.183594 237.707031 274.347656 C 238.378906 273.945312 239.007812 273.5625 239.597656 273.210938 C 239.890625 273.035156 240.171875 272.863281 240.441406 272.699219 C 240.707031 272.523438 240.957031 272.351562 241.195312 272.191406 C 241.195312 272.191406 242.097656 271.589844 242.996094 270.984375 C 243.445312 270.683594 243.894531 270.382812 244.230469 270.15625 C 244.574219 269.9375 244.78125 269.765625 244.78125 269.765625 C 244.78125 269.765625 245.75 269.070312 247.199219 268.023438 C 247.5625 267.761719 247.957031 267.480469 248.371094 267.179688 C 248.769531 266.859375 249.195312 266.523438 249.632812 266.175781 C 250.503906 265.476562 251.445312 264.746094 252.363281 263.984375 C 254.148438 262.40625 255.96875 260.867188 257.222656 259.589844 C 257.867188 258.96875 258.402344 258.449219 258.777344 258.085938 C 259.152344 257.726562 259.359375 257.511719 259.359375 257.511719 C 259.359375 257.511719 260.183594 256.652344 261.421875 255.359375 C 262.695312 254.101562 264.207031 252.257812 265.785156 250.46875 C 267.25 248.585938 268.785156 246.757812 269.785156 245.269531 C 270.828125 243.8125 271.519531 242.84375 271.519531 242.84375 L 273.921875 239.234375 C 278.917969 231.445312 282.921875 222.964844 285.539062 214.03125 C 288.257812 205.125 289.515625 195.78125 289.597656 186.445312 L 289.597656 186.4375 L 289.601562 186.371094 L 289.597656 186.304688 "/></g><path style=" stroke:none;fill-rule:nonzero;fill:rgb(100%,100%,100%);fill-opacity:1;" d="M 73.242188 74.546875 L 301.96875 74.546875 L 301.96875 158.546875 L 73.242188 158.546875 Z M 73.242188 74.546875 "/><path style=" stroke:none;fill-rule:nonzero;fill:rgb(100%,100%,100%);fill-opacity:1;" d="M 73.238281 187.183594 L 301.972656 187.183594 L 301.972656 303.433594 L 73.238281 303.433594 Z M 73.238281 187.183594 "/><g style="fill:rgb(100%,87.059021%,34.899902%);fill-opacity:1;"><g transform="translate(139.465847, 282.28756)"><path style="stroke:none;" d="M 4.910156 2.132812 C 8.960938 3.890625 11.589844 2.664062 13.035156 -0.664062 C 14.503906 -4.046875 13.539062 -6.800781 9.546875 -8.535156 L 5.972656 -10.085938 C 5.785156 -10.167969 5.648438 -10.113281 5.566406 -9.925781 L 1.179688 0.171875 C 1.097656 0.359375 1.152344 0.5 1.339844 0.582031 Z M 7.507812 -6.546875 L 8.507812 -6.113281 C 10.507812 -5.246094 11.015625 -3.785156 10.214844 -1.9375 C 9.410156 -0.0898438 7.976562 0.589844 5.976562 -0.277344 L 4.972656 -0.710938 Z M 7.507812 -6.546875 "/></g></g><g style="fill:rgb(100%,87.059021%,34.899902%);fill-opacity:1;"><g transform="translate(152.817203, 287.775977)"><path style="stroke:none;" d="M 2.578125 1.011719 C 3.476562 1.292969 4.457031 0.816406 4.757812 -0.128906 C 5.042969 -1.03125 4.554688 -2.007812 3.625 -2.304688 C 2.707031 -2.59375 1.722656 -2.0625 1.441406 -1.171875 C 1.152344 -0.257812 1.675781 0.726562 2.578125 1.011719 Z M 2.578125 1.011719 "/></g></g><g style="fill:rgb(100%,87.059021%,34.899902%);fill-opacity:1;"><g transform="translate(160.146256, 290.346818)"><path style="stroke:none;" d="M 16.179688 -8.949219 C 16.03125 -8.976562 15.882812 -8.910156 15.789062 -8.765625 L 12.414062 -3.65625 L 10.960938 -9.78125 C 10.925781 -9.941406 10.824219 -10.050781 10.652344 -10.082031 C 10.464844 -10.113281 10.34375 -10.042969 10.257812 -9.90625 L 6.910156 -4.636719 L 5.496094 -10.585938 C 5.464844 -10.753906 5.339844 -10.867188 5.1875 -10.894531 L 2.496094 -11.371094 C 2.273438 -11.410156 2.136719 -11.28125 2.207031 -11.046875 L 5.496094 0.972656 C 5.644531 1.484375 6.039062 1.554688 6.324219 1.121094 L 9.648438 -4.0625 L 11 1.945312 C 11.109375 2.449219 11.503906 2.519531 11.820312 2.09375 L 19.039062 -8.066406 C 19.183594 -8.265625 19.074219 -8.4375 18.875 -8.472656 Z M 16.179688 -8.949219 "/></g></g><g style="fill:rgb(100%,87.059021%,34.899902%);fill-opacity:1;"><g transform="translate(186.660884, 293.679388)"><path style="stroke:none;" d="M 10.152344 -3.382812 L 11.460938 -4.863281 C 11.597656 -5.015625 11.605469 -5.167969 11.453125 -5.296875 L 10.097656 -6.527344 C 9.953125 -6.660156 9.792969 -6.683594 9.664062 -6.523438 L 8.257812 -4.929688 L 4.488281 -8.011719 C 3.972656 -8.429688 3.792969 -8.746094 3.773438 -9.140625 C 3.742188 -9.722656 4.140625 -10.039062 4.578125 -10.0625 C 5.011719 -10.085938 5.464844 -9.800781 5.5 -9.203125 C 5.511719 -8.984375 5.453125 -8.761719 5.359375 -8.574219 C 5.292969 -8.394531 5.316406 -8.246094 5.445312 -8.125 L 6.800781 -6.90625 C 6.949219 -6.78125 7.132812 -6.773438 7.25 -6.960938 C 7.730469 -7.785156 7.90625 -8.566406 7.855469 -9.5 C 7.769531 -11.09375 6.292969 -12.304688 4.539062 -12.207031 C 2.382812 -12.089844 1.214844 -10.601562 1.308594 -8.832031 C 1.351562 -8.042969 1.777344 -7.363281 2.074219 -7.039062 L 1.820312 -6.8125 C 1.019531 -6.085938 0.617188 -5 0.679688 -3.800781 C 0.796875 -1.644531 2.753906 0.160156 5.203125 0.0273438 C 6.398438 -0.0390625 7.378906 -0.605469 8.195312 -1.289062 L 8.515625 -1.554688 L 9.9375 -0.402344 C 10.09375 -0.269531 10.253906 -0.292969 10.382812 -0.445312 L 11.566406 -1.8125 C 11.695312 -1.957031 11.683594 -2.144531 11.527344 -2.257812 Z M 6.382812 -2.878906 C 5.984375 -2.488281 5.546875 -2.304688 5.109375 -2.28125 C 4.089844 -2.226562 3.144531 -3.015625 3.09375 -3.898438 C 3.070312 -4.375 3.222656 -4.769531 3.589844 -5.117188 L 3.84375 -5.351562 L 6.613281 -3.105469 Z M 6.382812 -2.878906 "/></g></g><g style="fill:rgb(100%,87.059021%,34.899902%);fill-opacity:1;"><g transform="translate(207.902209, 291.495778)"><path style="stroke:none;" d="M 2.792969 -0.332031 C 5.402344 -0.9375 4.976562 -2.769531 4.464844 -4.972656 L 2.765625 -12.269531 C 2.71875 -12.46875 2.59375 -12.546875 2.394531 -12.5 L 0.00390625 -11.945312 C -0.1875 -11.898438 -0.273438 -11.769531 -0.226562 -11.570312 L 1.503906 -4.136719 C 1.632812 -3.566406 1.785156 -2.917969 0.988281 -2.734375 C 0.871094 -2.707031 0.710938 -2.699219 0.457031 -2.6875 C 0.238281 -2.683594 0.132812 -2.566406 0.148438 -2.375 L 0.222656 -0.417969 C 0.234375 -0.234375 0.335938 -0.125 0.550781 -0.113281 C 1.464844 -0.0546875 2.21875 -0.195312 2.792969 -0.332031 Z M 2.792969 -0.332031 "/></g></g><g style="fill:rgb(100%,87.059021%,34.899902%);fill-opacity:1;"><g transform="translate(216.110682, 289.49361)"><path style="stroke:none;" d="M 2.695312 -0.644531 C 3.589844 -0.925781 4.125 -1.878906 3.828125 -2.828125 C 3.546875 -3.730469 2.585938 -4.253906 1.65625 -3.964844 C 0.738281 -3.675781 0.234375 -2.675781 0.511719 -1.789062 C 0.800781 -0.871094 1.792969 -0.363281 2.695312 -0.644531 Z M 2.695312 -0.644531 "/></g></g><g style="fill:rgb(100%,87.059021%,34.899902%);fill-opacity:1;"><g transform="translate(223.376877, 287.295662)"><path style="stroke:none;" d="M 3.613281 -1.566406 C 3.800781 -1.648438 3.855469 -1.785156 3.773438 -1.972656 L 2.339844 -5.289062 L 6.070312 -6.90625 L 7.507812 -3.589844 C 7.585938 -3.402344 7.726562 -3.347656 7.914062 -3.429688 L 10.1875 -4.414062 C 10.375 -4.496094 10.429688 -4.632812 10.347656 -4.820312 L 5.972656 -14.925781 C 5.890625 -15.113281 5.75 -15.167969 5.5625 -15.085938 L 3.289062 -14.101562 C 3.101562 -14.023438 3.046875 -13.882812 3.128906 -13.695312 L 5.023438 -9.324219 L 1.292969 -7.707031 L -0.601562 -12.078125 C -0.683594 -12.265625 -0.824219 -12.320312 -1.011719 -12.238281 L -3.285156 -11.253906 C -3.472656 -11.171875 -3.527344 -11.035156 -3.445312 -10.847656 L 0.933594 -0.742188 C 1.015625 -0.554688 1.152344 -0.5 1.339844 -0.582031 Z M 3.613281 -1.566406 "/></g></g><path style=" stroke:none;fill-rule:nonzero;fill:rgb(100%,87.059021%,34.899902%);fill-opacity:1;" d="M 159.476562 158.917969 C 160.613281 159.054688 161.644531 158.242188 161.78125 157.105469 C 161.902344 156.09375 162.097656 155.113281 162.363281 154.191406 C 163.253906 151.058594 165.339844 148.480469 168.234375 146.941406 C 171.214844 145.355469 174.636719 145.058594 177.875 146.105469 C 179.515625 146.636719 181.078125 147.382812 182.519531 148.320312 C 185.632812 150.34375 189.644531 150.347656 192.742188 148.332031 C 194.1875 147.386719 195.757812 146.640625 197.40625 146.105469 C 200.648438 145.054688 204.082031 145.359375 207.0625 146.957031 C 209.976562 148.519531 212.0625 151.121094 212.945312 154.285156 C 214.023438 158.152344 213.539062 161.65625 213.53125 161.703125 C 211.636719 175.226562 198.589844 184.5 190.980469 188.824219 C 188.921875 189.996094 186.359375 189.996094 184.296875 188.824219 C 179.339844 186.007812 170.277344 179.996094 165.21875 171.375 C 164.570312 170.269531 164.609375 168.917969 165.3125 167.925781 C 165.714844 167.363281 166.453125 166.609375 168.300781 166.628906 C 169.671875 166.636719 171.015625 167.167969 172.078125 168.125 L 172.191406 168.222656 C 176.871094 172.367188 183.878906 172.917969 189.226562 169.566406 L 189.808594 169.203125 C 191.675781 168.035156 193.03125 167.597656 194.804688 167.597656 C 195.949219 167.597656 196.878906 166.671875 196.878906 165.527344 C 196.878906 164.382812 195.949219 163.457031 194.804688 163.457031 C 192.226562 163.457031 190.140625 164.105469 187.605469 165.695312 L 187.023438 166.058594 C 183.222656 168.441406 178.253906 168.058594 174.941406 165.125 L 174.855469 165.050781 C 173.03125 163.410156 170.714844 162.5 168.324219 162.484375 C 168.304688 162.484375 168.285156 162.484375 168.261719 162.484375 C 164.824219 162.484375 162.921875 164.136719 161.933594 165.527344 C 160.285156 167.84375 160.167969 170.960938 161.640625 173.46875 C 167.1875 182.921875 176.929688 189.402344 182.242188 192.421875 C 183.910156 193.367188 185.773438 193.839844 187.640625 193.839844 C 189.503906 193.839844 191.371094 193.367188 193.035156 192.421875 C 201.304688 187.722656 215.496094 177.558594 217.636719 162.296875 C 217.660156 162.121094 218.265625 157.925781 216.941406 153.175781 C 215.753906 148.914062 212.941406 145.410156 209.027344 143.308594 C 205.09375 141.199219 200.394531 140.785156 196.125 142.167969 C 194.128906 142.8125 192.226562 143.71875 190.476562 144.863281 C 188.753906 145.984375 186.519531 145.980469 184.785156 144.851562 C 183.039062 143.714844 181.144531 142.808594 179.152344 142.167969 C 174.898438 140.789062 170.207031 141.195312 166.28125 143.285156 C 162.382812 145.363281 159.574219 148.832031 158.371094 153.058594 C 158.050781 154.191406 157.8125 155.386719 157.664062 156.613281 C 157.527344 157.75 158.339844 158.777344 159.476562 158.917969 "/><path style=" stroke:none;fill-rule:nonzero;fill:rgb(100%,87.059021%,34.899902%);fill-opacity:1;" d="M 200.632812 166.675781 C 200.707031 166.789062 200.792969 166.894531 200.890625 166.992188 C 201.273438 167.375 201.8125 167.597656 202.355469 167.597656 C 202.492188 167.597656 202.628906 167.585938 202.761719 167.558594 C 202.890625 167.527344 203.023438 167.492188 203.148438 167.441406 C 203.273438 167.386719 203.394531 167.320312 203.507812 167.25 C 203.621094 167.175781 203.726562 167.085938 203.824219 166.992188 C 203.917969 166.894531 204.003906 166.789062 204.082031 166.675781 C 204.152344 166.566406 204.21875 166.445312 204.269531 166.320312 C 204.324219 166.195312 204.363281 166.066406 204.386719 165.933594 C 204.414062 165.796875 204.429688 165.664062 204.429688 165.527344 C 204.429688 165.394531 204.414062 165.257812 204.386719 165.121094 C 204.363281 164.992188 204.324219 164.859375 204.269531 164.734375 C 204.21875 164.609375 204.152344 164.492188 204.082031 164.378906 C 204.003906 164.265625 203.917969 164.15625 203.824219 164.0625 C 203.726562 163.96875 203.621094 163.882812 203.507812 163.804688 C 203.394531 163.730469 203.273438 163.664062 203.148438 163.617188 C 203.023438 163.5625 202.890625 163.523438 202.761719 163.496094 C 202.085938 163.363281 201.371094 163.582031 200.890625 164.0625 C 200.792969 164.15625 200.707031 164.265625 200.632812 164.378906 C 200.558594 164.492188 200.492188 164.609375 200.441406 164.734375 C 200.390625 164.859375 200.351562 164.992188 200.324219 165.121094 C 200.296875 165.257812 200.28125 165.394531 200.28125 165.527344 C 200.28125 165.664062 200.296875 165.796875 200.324219 165.933594 C 200.351562 166.066406 200.390625 166.195312 200.441406 166.320312 C 200.492188 166.445312 200.558594 166.566406 200.632812 166.675781 "/><g clip-rule="nonzero" clip-path="url(#clip2)"><path style=" stroke:none;fill-rule:nonzero;fill:rgb(100%,87.059021%,34.899902%);fill-opacity:1;" d="M 147.726562 209.457031 C 149.476562 210.652344 151.515625 212.0625 153.796875 213.652344 C 156.640625 215.636719 158.535156 218.746094 158.996094 222.183594 C 159.367188 224.949219 161.757812 227.039062 164.558594 227.039062 L 173.722656 227.039062 C 174.867188 227.039062 175.792969 226.113281 175.792969 224.96875 C 175.792969 223.824219 174.867188 222.898438 173.722656 222.898438 L 164.558594 222.898438 C 163.828125 222.898438 163.203125 222.355469 163.105469 221.632812 C 162.492188 217.050781 159.964844 212.90625 156.171875 210.257812 C 153.878906 208.660156 151.828125 207.238281 150.066406 206.039062 C 148.484375 204.960938 147.308594 203.429688 146.671875 201.609375 C 145.355469 197.847656 143.050781 189.925781 142.394531 179.148438 C 142.355469 178.5 142.582031 177.878906 143.027344 177.40625 C 143.480469 176.929688 144.085938 176.664062 144.742188 176.664062 C 145.921875 176.664062 146.921875 177.546875 147.070312 178.710938 C 147.382812 181.140625 147.84375 184.617188 148.273438 187.394531 C 148.613281 189.585938 149.722656 191.601562 151.398438 193.066406 L 152.574219 194.09375 C 153.4375 194.847656 154.746094 194.761719 155.5 193.902344 C 156.253906 193.039062 156.167969 191.734375 155.308594 190.980469 L 154.132812 189.953125 C 153.1875 189.125 152.5625 187.992188 152.375 186.761719 C 151.953125 184.027344 151.496094 180.589844 151.1875 178.183594 C 150.773438 174.957031 148.003906 172.523438 144.742188 172.523438 C 142.957031 172.523438 141.234375 173.269531 140.007812 174.566406 C 138.785156 175.863281 138.148438 177.625 138.257812 179.398438 C 138.90625 190.113281 141.0625 198.132812 142.757812 202.976562 C 143.6875 205.636719 145.40625 207.878906 147.726562 209.457031 "/></g><g clip-rule="nonzero" clip-path="url(#clip3)"><path style=" stroke:none;fill-rule:nonzero;fill:rgb(100%,87.059021%,34.899902%);fill-opacity:1;" d="M 163.0625 206.589844 C 163.738281 207.238281 164.191406 208.105469 164.328125 209.03125 L 164.84375 212.457031 C 165.015625 213.585938 166.070312 214.367188 167.203125 214.195312 C 168.335938 214.027344 169.117188 212.972656 168.945312 211.839844 L 168.433594 208.417969 C 168.15625 206.585938 167.265625 204.871094 165.921875 203.59375 L 162.339844 200.179688 C 161.761719 199.628906 161.457031 198.886719 161.476562 198.089844 C 161.5 197.289062 161.847656 196.566406 162.457031 196.046875 C 163.347656 195.292969 164.632812 195.171875 165.65625 195.753906 C 171.421875 199.019531 175.6875 203.804688 178.25 207.242188 C 179.5625 209 180.285156 211.183594 180.285156 213.386719 L 180.285156 224.96875 C 180.285156 226.113281 181.210938 227.039062 182.355469 227.039062 C 183.503906 227.039062 184.429688 226.113281 184.429688 224.96875 L 184.429688 213.386719 C 184.429688 210.296875 183.417969 207.238281 181.578125 204.769531 C 178.773438 201.011719 174.09375 195.773438 167.703125 192.152344 C 165.167969 190.714844 161.980469 191.015625 159.769531 192.894531 C 158.277344 194.164062 157.386719 196.011719 157.332031 197.972656 C 157.277344 199.929688 158.058594 201.824219 159.476562 203.175781 L 163.0625 206.589844 "/></g><g clip-rule="nonzero" clip-path="url(#clip4)"><path style=" stroke:none;fill-rule:nonzero;fill:rgb(100%,87.059021%,34.899902%);fill-opacity:1;" d="M 230.539062 172.523438 C 227.277344 172.523438 224.507812 174.957031 224.09375 178.183594 C 223.785156 180.59375 223.328125 184.039062 222.90625 186.761719 C 222.714844 187.992188 222.089844 189.125 221.148438 189.953125 L 219.972656 190.980469 C 219.113281 191.734375 219.023438 193.042969 219.78125 193.902344 C 220.535156 194.761719 221.84375 194.847656 222.703125 194.09375 L 223.878906 193.066406 C 225.558594 191.601562 226.667969 189.585938 227.007812 187.394531 C 227.433594 184.625 227.894531 181.144531 228.207031 178.710938 C 228.355469 177.546875 229.359375 176.664062 230.539062 176.664062 C 231.195312 176.664062 231.800781 176.929688 232.25 177.40625 C 232.699219 177.878906 232.925781 178.5 232.882812 179.148438 C 232.230469 189.929688 229.925781 197.847656 228.605469 201.609375 C 227.96875 203.429688 226.796875 204.960938 225.214844 206.039062 C 222.59375 207.824219 219.746094 209.808594 217.820312 211.160156 C 214.84375 213.242188 212.859375 216.5 212.378906 220.097656 L 212.171875 221.632812 C 212.074219 222.355469 211.453125 222.898438 210.722656 222.898438 L 201.558594 222.898438 C 200.414062 222.898438 199.484375 223.824219 199.484375 224.96875 C 199.484375 226.113281 200.414062 227.039062 201.558594 227.039062 L 210.722656 227.039062 C 213.519531 227.039062 215.910156 224.949219 216.285156 222.183594 L 216.488281 220.644531 C 216.820312 218.191406 218.171875 215.96875 220.199219 214.550781 C 222.117188 213.207031 224.949219 211.234375 227.554688 209.457031 C 229.871094 207.878906 231.589844 205.636719 232.523438 202.976562 C 234.21875 198.132812 236.375 190.113281 237.023438 179.398438 C 237.132812 177.625 236.492188 175.863281 235.269531 174.566406 C 234.046875 173.269531 232.320312 172.523438 230.539062 172.523438 "/></g><g clip-rule="nonzero" clip-path="url(#clip5)"><path style=" stroke:none;fill-rule:nonzero;fill:rgb(100%,87.059021%,34.899902%);fill-opacity:1;" d="M 215.511719 192.894531 C 213.300781 191.015625 210.113281 190.714844 207.578125 192.152344 C 201.1875 195.773438 196.503906 201.011719 193.703125 204.769531 C 191.863281 207.238281 190.847656 210.296875 190.847656 213.386719 L 190.847656 224.96875 C 190.847656 226.113281 191.777344 227.039062 192.921875 227.039062 C 194.066406 227.039062 194.996094 226.113281 194.996094 224.96875 L 194.996094 213.386719 C 194.996094 211.183594 195.71875 209 197.03125 207.242188 C 199.59375 203.804688 203.859375 199.019531 209.625 195.753906 C 210.648438 195.175781 211.933594 195.292969 212.824219 196.046875 C 213.433594 196.566406 213.78125 197.289062 213.800781 198.089844 C 213.824219 198.886719 213.519531 199.628906 212.941406 200.179688 L 209.355469 203.59375 C 208.015625 204.871094 207.125 206.585938 206.847656 208.417969 L 206.332031 211.839844 C 206.164062 212.972656 206.945312 214.027344 208.078125 214.195312 C 209.207031 214.367188 210.265625 213.585938 210.4375 212.457031 L 210.949219 209.03125 C 211.089844 208.105469 211.539062 207.238281 212.21875 206.589844 L 215.804688 203.175781 C 217.222656 201.824219 218.003906 199.929688 217.949219 197.972656 C 217.894531 196.011719 217.003906 194.164062 215.511719 192.894531 "/></g><g style="fill:rgb(100%,87.059021%,34.899902%);fill-opacity:1;"><g transform="translate(106.897131, 140.392149)"><path style="stroke:none;" d="M 4.1875 -5.597656 C 6.320312 -8.734375 5.773438 -12.167969 2.679688 -14.273438 C -0.414062 -16.378906 -3.808594 -15.628906 -5.945312 -12.492188 C -8.074219 -9.363281 -7.515625 -5.941406 -4.425781 -3.835938 C -1.332031 -1.730469 2.054688 -2.46875 4.1875 -5.597656 Z M 1.875 -7.171875 C 0.792969 -5.578125 -0.976562 -5.242188 -2.675781 -6.402344 C -4.378906 -7.5625 -4.714844 -9.328125 -3.632812 -10.921875 C -2.542969 -12.523438 -0.765625 -12.871094 0.9375 -11.710938 C 2.640625 -10.554688 2.964844 -8.773438 1.875 -7.171875 Z M 1.875 -7.171875 "/></g></g><g style="fill:rgb(100%,87.059021%,34.899902%);fill-opacity:1;"><g transform="translate(115.847728, 127.574452)"><path style="stroke:none;" d="M 4.546875 -4.359375 C 6.507812 -6.4375 7.269531 -9.03125 5.085938 -11.09375 L -0.292969 -16.175781 C -0.441406 -16.316406 -0.597656 -16.304688 -0.730469 -16.164062 L -2.488281 -14.304688 C -2.628906 -14.152344 -2.625 -14.003906 -2.476562 -13.863281 L 2.300781 -9.347656 C 3.460938 -8.25 3.457031 -7.277344 2.515625 -6.28125 C 1.589844 -5.300781 0.605469 -5.230469 -0.554688 -6.328125 L -5.332031 -10.84375 C -5.480469 -10.980469 -5.632812 -10.976562 -5.769531 -10.828125 L -7.53125 -8.96875 C -7.664062 -8.824219 -7.664062 -8.671875 -7.515625 -8.53125 L -2.140625 -3.449219 C 0.046875 -1.382812 2.644531 -2.347656 4.546875 -4.359375 Z M 4.546875 -4.359375 "/></g></g><g style="fill:rgb(100%,87.059021%,34.899902%);fill-opacity:1;"><g transform="translate(125.784794, 117.294453)"><path style="stroke:none;" d="M 4.109375 -8.796875 C 4.640625 -9.972656 4.382812 -11.351562 3.34375 -12.675781 C 2.113281 -14.238281 0.328125 -15.0625 -2.25 -13.03125 L -6.046875 -10.042969 C -6.207031 -9.917969 -6.222656 -9.769531 -6.097656 -9.609375 L 0.710938 -0.957031 C 0.839844 -0.796875 0.988281 -0.777344 1.148438 -0.902344 L 3.105469 -2.445312 C 3.265625 -2.570312 3.285156 -2.71875 3.160156 -2.882812 L 0.894531 -5.753906 L 1.925781 -6.566406 L 5.703125 -4.789062 C 5.863281 -4.710938 6 -4.722656 6.128906 -4.824219 L 8.347656 -6.570312 C 8.535156 -6.714844 8.511719 -6.890625 8.292969 -7 Z M -1.042969 -10.628906 C -0.554688 -11.015625 0.226562 -11.628906 0.929688 -10.734375 C 1.707031 -9.746094 0.777344 -9.015625 0.4375 -8.75 L -0.734375 -7.828125 L -2.214844 -9.707031 Z M -1.042969 -10.628906 "/></g></g><g style="fill:rgb(100%,87.059021%,34.899902%);fill-opacity:1;"><g transform="translate(142.276437, 105.483074)"><path style="stroke:none;" d="M 3.554688 -1.691406 C 3.742188 -1.78125 3.789062 -1.921875 3.703125 -2.105469 L 2.148438 -5.367188 L 5.820312 -7.117188 L 7.375 -3.855469 C 7.460938 -3.667969 7.605469 -3.621094 7.789062 -3.707031 L 10.023438 -4.773438 C 10.210938 -4.859375 10.257812 -5 10.171875 -5.1875 L 5.4375 -15.128906 C 5.351562 -15.3125 5.210938 -15.363281 5.023438 -15.273438 L 2.789062 -14.210938 C 2.605469 -14.121094 2.554688 -13.980469 2.640625 -13.796875 L 4.6875 -9.496094 L 1.015625 -7.746094 L -1.03125 -12.050781 C -1.117188 -12.234375 -1.257812 -12.285156 -1.445312 -12.195312 L -3.679688 -11.132812 C -3.863281 -11.042969 -3.914062 -10.902344 -3.828125 -10.71875 L 0.90625 -0.773438 C 0.992188 -0.589844 1.136719 -0.539062 1.320312 -0.628906 Z M 3.554688 -1.691406 "/></g></g><g style="fill:rgb(100%,87.059021%,34.899902%);fill-opacity:1;"><g transform="translate(155.224076, 99.48528)"><path style="stroke:none;" d="M 2.746094 -12.992188 C 2.382812 -13.382812 2.03125 -13.273438 1.945312 -12.75 L 0.117188 -0.421875 C 0.0859375 -0.183594 0.226562 -0.0664062 0.441406 -0.132812 L 3.058594 -0.929688 C 3.21875 -0.976562 3.3125 -1.101562 3.324219 -1.273438 L 3.402344 -2.316406 L 7.339844 -3.511719 L 7.984375 -2.6875 C 8.089844 -2.554688 8.238281 -2.503906 8.398438 -2.550781 L 11.015625 -3.347656 C 11.230469 -3.414062 11.28125 -3.585938 11.125 -3.769531 Z M 3.847656 -7.9375 L 5.792969 -5.472656 L 3.597656 -4.804688 Z M 3.847656 -7.9375 "/></g></g><g style="fill:rgb(100%,87.059021%,34.899902%);fill-opacity:1;"><g transform="translate(168.398056, 95.645641)"><path style="stroke:none;" d="M 3.90625 -0.605469 C 4.109375 -0.636719 4.199219 -0.757812 4.167969 -0.960938 L 3.605469 -4.574219 L 6.226562 -4.980469 C 8.402344 -5.316406 9.503906 -7.011719 9.136719 -9.398438 C 8.832031 -11.367188 7.679688 -12.960938 4.441406 -12.457031 L -0.335938 -11.71875 C -0.539062 -11.6875 -0.625 -11.566406 -0.59375 -11.363281 L 1.089844 -0.484375 C 1.121094 -0.28125 1.242188 -0.191406 1.445312 -0.222656 Z M 2.835938 -9.542969 L 4.3125 -9.773438 C 4.925781 -9.867188 5.90625 -10.019531 6.078125 -8.894531 C 6.273438 -7.652344 5.105469 -7.472656 4.675781 -7.40625 L 3.203125 -7.179688 Z M 2.835938 -9.542969 "/></g></g><g style="fill:rgb(100%,87.059021%,34.899902%);fill-opacity:1;"><g transform="translate(181.055403, 93.808223)"><path style="stroke:none;" d="M 3.953125 -0.0664062 C 4.15625 -0.0703125 4.261719 -0.179688 4.257812 -0.382812 L 4.195312 -4.039062 L 6.847656 -4.085938 C 9.050781 -4.121094 10.371094 -5.652344 10.332031 -8.066406 C 10.296875 -10.058594 9.375 -11.792969 6.09375 -11.738281 L 1.265625 -11.65625 C 1.058594 -11.652344 0.957031 -11.542969 0.957031 -11.339844 L 1.144531 -0.328125 C 1.148438 -0.125 1.257812 -0.0195312 1.460938 -0.0234375 Z M 4.109375 -9.066406 L 5.601562 -9.09375 C 6.222656 -9.105469 7.214844 -9.121094 7.234375 -7.984375 C 7.253906 -6.726562 6.074219 -6.707031 5.644531 -6.699219 L 4.152344 -6.675781 Z M 4.109375 -9.066406 "/></g></g><g style="fill:rgb(100%,87.059021%,34.899902%);fill-opacity:1;"><g transform="translate(193.805526, 93.661596)"><path style="stroke:none;" d="M 7.414062 0.949219 C 7.617188 0.972656 7.734375 0.882812 7.761719 0.679688 L 8.289062 -3.429688 L 13.644531 -9.609375 C 13.8125 -9.785156 13.734375 -9.96875 13.488281 -10.003906 L 10.503906 -10.382812 C 10.339844 -10.40625 10.203125 -10.347656 10.109375 -10.210938 L 7.117188 -6.390625 L 5.21875 -10.839844 C 5.164062 -10.992188 5.042969 -11.082031 4.878906 -11.101562 L 1.890625 -11.484375 C 1.648438 -11.515625 1.527344 -11.355469 1.648438 -11.140625 L 5.207031 -3.824219 L 4.683594 0.285156 C 4.65625 0.488281 4.753906 0.609375 4.949219 0.632812 Z M 7.414062 0.949219 "/></g></g><g style="fill:rgb(100%,87.059021%,34.899902%);fill-opacity:1;"><g transform="translate(214.814813, 97.453417)"><path style="stroke:none;" d="M 3.714844 1.3125 C 3.90625 1.378906 4.039062 1.316406 4.109375 1.125 L 5.339844 -2.355469 L 8.867188 -1.105469 C 9.050781 -1.042969 9.195312 -1.109375 9.261719 -1.296875 L 9.882812 -3.054688 C 9.949219 -3.246094 9.878906 -3.382812 9.695312 -3.449219 L 6.167969 -4.695312 L 7.003906 -7.066406 L 11.203125 -5.582031 C 11.394531 -5.515625 11.53125 -5.578125 11.597656 -5.773438 L 12.269531 -7.671875 C 12.339844 -7.863281 12.273438 -8 12.082031 -8.066406 L 5.253906 -10.480469 C 5.0625 -10.546875 4.925781 -10.484375 4.859375 -10.289062 L 1.1875 0.0898438 C 1.121094 0.285156 1.183594 0.417969 1.378906 0.488281 Z M 3.714844 1.3125 "/></g></g><g style="fill:rgb(100%,87.059021%,34.899902%);fill-opacity:1;"><g transform="translate(225.508049, 101.274601)"><path style="stroke:none;" d="M 11.011719 -7.425781 C 11.019531 -7.957031 10.6875 -8.128906 10.261719 -7.808594 L 0.378906 -0.222656 C 0.191406 -0.0742188 0.207031 0.105469 0.410156 0.210938 L 2.84375 1.457031 C 2.992188 1.535156 3.148438 1.511719 3.273438 1.398438 L 4.058594 0.703125 L 7.714844 2.578125 L 7.605469 3.621094 C 7.589844 3.789062 7.660156 3.929688 7.808594 4.007812 L 10.242188 5.253906 C 10.445312 5.355469 10.601562 5.265625 10.613281 5.027344 Z M 8.285156 -3.027344 L 7.96875 0.09375 L 5.925781 -0.953125 Z M 8.285156 -3.027344 "/></g></g><g style="fill:rgb(100%,87.059021%,34.899902%);fill-opacity:1;"><g transform="translate(237.626824, 107.544109)"><path style="stroke:none;" d="M 3.132812 2.285156 C 3.296875 2.40625 3.445312 2.382812 3.566406 2.21875 L 6.027344 -1.152344 L 6.339844 2.867188 C 6.355469 3.085938 6.476562 3.175781 6.6875 3.121094 L 10.65625 2.191406 L 8.175781 5.585938 C 8.054688 5.75 8.078125 5.898438 8.246094 6.019531 L 10.183594 7.4375 C 10.347656 7.558594 10.496094 7.535156 10.617188 7.367188 L 17.136719 -1.5625 C 17.476562 -2.027344 17.234375 -2.371094 16.683594 -2.222656 L 8.75 -0.0625 L 8.414062 -8.261719 C 8.390625 -8.859375 7.984375 -8.957031 7.644531 -8.492188 L 1.125 0.4375 C 1.003906 0.601562 1.027344 0.75 1.191406 0.871094 Z M 3.132812 2.285156 "/></g></g><g style="fill:rgb(100%,87.059021%,34.899902%);fill-opacity:1;"><g transform="translate(250.246111, 117.232228)"><path style="stroke:none;" d="M 2.871094 2.695312 C 3.019531 2.835938 3.167969 2.832031 3.308594 2.683594 L 10.851562 -5.339844 C 10.988281 -5.488281 10.984375 -5.636719 10.835938 -5.777344 L 9.03125 -7.476562 C 8.882812 -7.613281 8.734375 -7.609375 8.59375 -7.460938 L 1.050781 0.5625 C 0.910156 0.710938 0.914062 0.859375 1.066406 1 Z M 2.871094 2.695312 "/></g></g><g style="fill:rgb(100%,87.059021%,34.899902%);fill-opacity:1;"><g transform="translate(255.626576, 122.324159)"><path style="stroke:none;" d="M 5.121094 5.824219 C 5.253906 5.976562 5.40625 5.988281 5.558594 5.851562 L 7.070312 4.523438 C 7.226562 4.386719 7.234375 4.238281 7.101562 4.082031 L 4.785156 1.449219 L 11.308594 -4.285156 C 11.460938 -4.421875 11.472656 -4.570312 11.335938 -4.722656 L 9.703125 -6.582031 C 9.566406 -6.738281 9.417969 -6.746094 9.261719 -6.609375 L 0.992188 0.660156 C 0.839844 0.792969 0.832031 0.945312 0.964844 1.097656 Z M 5.121094 5.824219 "/></g></g><g style="fill:rgb(100%,87.059021%,34.899902%);fill-opacity:1;"><g transform="translate(262.373522, 129.966935)"><path style="stroke:none;" d="M 4.160156 6.210938 C 4.273438 6.378906 4.421875 6.410156 4.589844 6.296875 L 8.03125 3.988281 L 16.210938 3.964844 C 16.453125 3.972656 16.542969 3.792969 16.402344 3.585938 L 14.730469 1.089844 C 14.636719 0.949219 14.503906 0.886719 14.339844 0.902344 L 9.492188 1.160156 L 11.597656 -3.195312 C 11.675781 -3.335938 11.667969 -3.484375 11.574219 -3.625 L 9.894531 -6.128906 C 9.761719 -6.328125 9.5625 -6.3125 9.476562 -6.085938 L 6.304688 1.410156 L 2.863281 3.714844 C 2.691406 3.828125 2.667969 3.984375 2.777344 4.144531 Z M 4.160156 6.210938 "/></g></g></g></svg>